<svg width="256" height="256" viewBox="0 0 256 256" fill="none" xmlns="http://www.w3.org/2000/svg">
  <rect width="256" height="256" rx="64" fill="#201C18"/>
  <rect x="38" y="56" width="180" height="144" rx="38" fill="#F8F2E9"/>
  <path d="M128 76C145.673 76 160 90.3269 160 108V116H96V108C96 90.3269 110.327 76 128 76Z" fill="#C84B2F"/>
  <rect x="80" y="108" width="96" height="84" rx="22" fill="#F6E4D3"/>
  <path d="M121 126C121 123.239 123.239 121 126 121H130C132.761 121 135 123.239 135 126V141H150C152.761 141 155 143.239 155 146V150C155 152.761 152.761 155 150 155H135V170C135 172.761 132.761 175 130 175H126C123.239 175 121 172.761 121 170V155H106C103.239 155 101 152.761 101 150V146C101 143.239 103.239 141 106 141H121V126Z" fill="#C84B2F"/>
  <circle cx="198" cy="58" r="18" fill="#F0D2B1"/>
  <circle cx="58" cy="204" r="12" fill="#C84B2F" fill-opacity="0.18"/>
</svg>

